<svg width="1000" height="264" viewBox="0 0 1000 264" fill="none" xmlns="http://www.w3.org/2000/svg">
<path d="M348.025 60.589C354.687 49.0479 371.342 49.0479 378.005 60.589L480.433 238.032C487.096 249.574 478.768 264 465.444 264H260.586C247.262 264 238.934 249.574 245.596 238.032L348.025 60.589Z" fill="white"/>
<path d="M622.169 60.589C628.831 49.0479 645.487 49.0479 652.149 60.589L754.578 238.032C761.24 249.574 752.912 264 739.588 264H534.73C521.406 264 513.078 249.574 519.74 238.032L622.169 60.589Z" fill="white"/>
<path d="M514.89 203.411C508.228 214.952 491.573 214.952 484.911 203.411L382.482 25.9676C375.82 14.4264 384.148 0 397.472 0H602.33C615.654 0 623.981 14.4265 617.319 25.9676L514.89 203.411Z" fill="#69D7F2"/>
<path d="M761.879 205.126C758.567 199.355 762.732 192.16 769.384 192.16H960.16C963.26 192.16 966.123 193.818 967.666 196.507L998.839 250.823C1002.15 256.593 997.985 263.788 991.333 263.788H800.557C797.457 263.788 794.594 262.13 793.051 259.441L761.879 205.126Z" fill="#69D7F2"/>
<path d="M706.491 109.045C703.179 103.275 707.344 96.0802 713.997 96.0802H904.772C907.872 96.0802 910.735 97.7383 912.278 100.427L943.451 154.743C946.763 160.513 942.598 167.708 935.945 167.708H745.169C742.07 167.708 739.207 166.05 737.664 163.361L706.491 109.045Z" fill="#69D7F2"/>
<path d="M651.536 12.9651C648.224 7.19449 652.389 0 659.041 0H849.817C852.917 0 855.78 1.658 857.323 4.34671L888.496 58.6623C891.807 64.4329 887.642 71.6274 880.99 71.6274H690.214C687.114 71.6274 684.252 69.9694 682.708 67.2807L651.536 12.9651Z" fill="#69D7F2"/>
<path d="M237.925 205.193C241.306 199.423 237.146 192.16 230.459 192.16H39.8398C36.7402 192.16 33.8772 193.818 32.3341 196.507L1.1615 250.823C-2.15032 256.593 2.01469 263.788 8.66719 263.788H198.63C201.701 263.788 204.543 262.159 206.096 259.509L237.925 205.193Z" fill="#69D7F2"/>
<path d="M293.509 109.045C296.821 103.275 292.656 96.0802 286.003 96.0802H95.6604C92.5608 96.0802 89.6978 97.7383 88.1547 100.427L56.982 154.743C53.6702 160.513 57.8352 167.708 64.4877 167.708H254.831C257.93 167.708 260.793 166.05 262.336 163.361L293.509 109.045Z" fill="#69D7F2"/>
<path d="M349.33 12.9651C352.642 7.19449 348.477 0 341.824 0H151.048C147.949 0 145.086 1.658 143.543 4.34671L112.37 58.6623C109.058 64.4329 113.223 71.6274 119.876 71.6274H310.651C313.751 71.6274 316.614 69.9694 318.157 67.2807L349.33 12.9651Z" fill="#69D7F2"/>
</svg>
